<svg xmlns="http://www.w3.org/2000/svg" width="296" height="22" viewBox="0 0 296 22" fill="none"><path d="M0 10.8594L132.176 10.8594" stroke="url(#paint0_radial_1317_841)" stroke-width="1.6"></path><path d="M133.418 10.6732L131.556 12.3929V8.95354L133.418 10.6732Z" fill="#C88208"></path><g filter="url(#filter0_f_1317_841)"><circle cx="147.995" cy="10.858" r="3.07306" fill="#E37A11"></circle></g><g filter="url(#filter1_f_1317_841)"><circle cx="147.995" cy="10.858" r="3.07306" fill="#E37A11"></circle></g><path d="M147.386 0.409741C147.386 0.183447 147.569 0 147.796 0H148.205C148.432 0 148.615 0.183447 148.615 0.409741V21.3065C148.615 21.5328 148.432 21.7163 148.205 21.7163H147.796C147.569 21.7163 147.386 21.5328 147.386 21.3065V0.409741Z" fill="url(#paint1_radial_1317_841)"></path><path d="M158.443 10.1509C158.669 10.1489 158.854 10.3307 158.856 10.557L158.86 10.9667C158.862 11.193 158.68 11.3781 158.454 11.3801L137.558 11.5654C137.331 11.5674 137.146 11.3856 137.144 11.1593L137.141 10.7496C137.139 10.5233 137.32 10.3382 137.547 10.3362L158.443 10.1509Z" fill="url(#paint2_radial_1317_841)"></path><path d="M140.92 18.5533C140.761 18.7139 140.502 18.7148 140.341 18.5554L140.316 18.5309C140.156 18.3714 140.155 18.112 140.314 17.9514L155.036 3.12054C155.195 2.95993 155.454 2.95897 155.615 3.11839L155.64 3.14296C155.8 3.30238 155.801 3.56181 155.642 3.72242L140.92 18.5533Z" fill="url(#paint3_radial_1317_841)"></path><path d="M140.288 3.75092C140.128 3.59091 140.128 3.33147 140.288 3.17146L140.312 3.1468C140.472 2.98679 140.732 2.98679 140.892 3.1468L155.668 17.9231C155.828 18.0831 155.828 18.3425 155.668 18.5025L155.643 18.5272C155.483 18.6872 155.224 18.6872 155.064 18.5272L140.288 3.75092Z" fill="url(#paint4_radial_1317_841)"></path><path d="M142.059 7.78508H142.879V8.60456H142.059V7.78508Z" fill="url(#paint5_radial_1317_841)"></path><path d="M145.337 5.32663H146.157V6.14611H145.337V5.32663Z" fill="url(#paint6_radial_1317_841)"></path><path d="M149.845 5.32663H150.664V6.14611H149.845V5.32663Z" fill="url(#paint7_radial_1317_841)"></path><path d="M153.122 7.78508H153.942V8.60456H153.122V7.78508Z" fill="url(#paint8_radial_1317_841)"></path><path d="M153.122 13.1117H153.942V13.9312H153.122V13.1117Z" fill="url(#paint9_radial_1317_841)"></path><path d="M150.254 15.9799H151.074V16.7994H150.254V15.9799Z" fill="url(#paint10_radial_1317_841)"></path><path d="M145.337 15.9799H146.157V16.7994H145.337V15.9799Z" fill="url(#paint11_radial_1317_841)"></path><path d="M141.65 12.702H142.469V13.5214H141.65V12.702Z" fill="url(#paint12_radial_1317_841)"></path><path d="M296 10.8594L163.824 10.8594" stroke="url(#paint13_radial_1317_841)" stroke-width="1.6"></path><path d="M162.582 10.6732L164.444 12.3929V8.95354L162.582 10.6732Z" fill="#C88208"></path><mask id="mask0_1317_841" style="mask-type:alpha" maskUnits="userSpaceOnUse" x="0" y="0" width="296" height="22"><path d="M0 10.8594L132.176 10.8594" stroke="url(#paint14_radial_1317_841)" stroke-width="1.6"></path><path d="M133.418 10.6732L131.556 12.3929V8.95354L133.418 10.6732Z" fill="#C88208"></path><circle cx="147.995" cy="10.858" r="3.07306" fill="#E37A11"></circle><circle cx="147.995" cy="10.858" r="3.07306" fill="#E37A11"></circle><path d="M147.386 0.409741C147.386 0.183447 147.569 0 147.796 0H148.205C148.432 0 148.615 0.183447 148.615 0.409741V21.3065C148.615 21.5328 148.432 21.7163 148.205 21.7163H147.796C147.569 21.7163 147.386 21.5328 147.386 21.3065V0.409741Z" fill="url(#paint15_radial_1317_841)"></path><path d="M158.443 10.1509C158.669 10.1489 158.854 10.3307 158.856 10.557L158.86 10.9667C158.862 11.193 158.68 11.3781 158.454 11.3801L137.558 11.5654C137.331 11.5674 137.146 11.3856 137.144 11.1593L137.141 10.7496C137.139 10.5233 137.32 10.3382 137.547 10.3362L158.443 10.1509Z" fill="url(#paint16_radial_1317_841)"></path><path d="M140.92 18.5533C140.761 18.7139 140.502 18.7148 140.341 18.5554L140.316 18.5309C140.156 18.3714 140.155 18.112 140.314 17.9514L155.036 3.12054C155.195 2.95993 155.454 2.95897 155.615 3.11839L155.64 3.14296C155.8 3.30238 155.801 3.56181 155.642 3.72242L140.92 18.5533Z" fill="url(#paint17_radial_1317_841)"></path><path d="M140.288 3.75092C140.128 3.59091 140.128 3.33147 140.288 3.17146L140.312 3.1468C140.472 2.98679 140.732 2.98679 140.892 3.1468L155.668 17.9231C155.828 18.0831 155.828 18.3425 155.668 18.5025L155.643 18.5272C155.483 18.6872 155.224 18.6872 155.064 18.5272L140.288 3.75092Z" fill="url(#paint18_radial_1317_841)"></path><path d="M142.059 7.78508H142.879V8.60456H142.059V7.78508Z" fill="url(#paint19_radial_1317_841)"></path><path d="M145.337 5.32663H146.157V6.14611H145.337V5.32663Z" fill="url(#paint20_radial_1317_841)"></path><path d="M149.845 5.32663H150.664V6.14611H149.845V5.32663Z" fill="url(#paint21_radial_1317_841)"></path><path d="M153.122 7.78508H153.942V8.60456H153.122V7.78508Z" fill="url(#paint22_radial_1317_841)"></path><path d="M153.122 13.1117H153.942V13.9312H153.122V13.1117Z" fill="url(#paint23_radial_1317_841)"></path><path d="M150.254 15.9799H151.074V16.7994H150.254V15.9799Z" fill="url(#paint24_radial_1317_841)"></path><path d="M145.337 15.9799H146.157V16.7994H145.337V15.9799Z" fill="url(#paint25_radial_1317_841)"></path><path d="M141.65 12.702H142.469V13.5214H141.65V12.702Z" fill="url(#paint26_radial_1317_841)"></path><path d="M296 10.8594L163.824 10.8594" stroke="url(#paint27_radial_1317_841)" stroke-width="1.6"></path><path d="M162.582 10.6732L164.444 12.3929V8.95354L162.582 10.6732Z" fill="#C88208"></path></mask><g mask="url(#mask0_1317_841)"><g filter="url(#filter2_f_1317_841)"><circle cx="19" cy="10" r="10" fill="#FF4B00"></circle></g><g filter="url(#filter3_f_1317_841)"><circle cx="6.5" cy="0.5" r="18.5" fill="#FF4B00"></circle></g><g filter="url(#filter4_f_1317_841)"><circle cx="191" cy="10" r="10" fill="#FF4B00"></circle></g><g filter="url(#filter5_f_1317_841)"><circle cx="277" cy="10" r="10" fill="#FF4B00"></circle></g><g filter="url(#filter6_f_1317_841)"><ellipse cx="283.5" rx="18.5" ry="19" fill="#FF4B00"></ellipse></g><g filter="url(#filter7_f_1317_841)"><circle cx="105" cy="12" r="10" fill="#FF4B00"></circle></g><g opacity="0.45" filter="url(#filter8_f_1317_841)"><circle cx="71.5" cy="3.5" r="18.5" fill="#FF4B00"></circle></g></g><defs><filter id="filter0_f_1317_841" x="139.337" y="2.20001" width="17.3143" height="17.3158" filterUnits="userSpaceOnUse" color-interpolation-filters="sRGB"></filter><filter id="filter1_f_1317_841" x="141.199" y="4.06164" width="13.5911" height="13.5925" filterUnits="userSpaceOnUse" color-interpolation-filters="sRGB"></filter><filter id="filter2_f_1317_841" x="-11" y="-20" width="60" height="60" filterUnits="userSpaceOnUse" color-interpolation-filters="sRGB"></filter><filter id="filter3_f_1317_841" x="-32" y="-38" width="77" height="77" filterUnits="userSpaceOnUse" color-interpolation-filters="sRGB"></filter><filter id="filter4_f_1317_841" x="161" y="-20" width="60" height="60" filterUnits="userSpaceOnUse" color-interpolation-filters="sRGB"></filter><filter id="filter5_f_1317_841" x="247" y="-20" width="60" height="60" filterUnits="userSpaceOnUse" color-interpolation-filters="sRGB"></filter><filter id="filter6_f_1317_841" x="245" y="-39" width="77" height="78" filterUnits="userSpaceOnUse" color-interpolation-filters="sRGB"></filter><filter id="filter7_f_1317_841" x="75" y="-18" width="60" height="60" filterUnits="userSpaceOnUse" color-interpolation-filters="sRGB"></filter><filter id="filter8_f_1317_841" x="33" y="-35" width="77" height="77" filterUnits="userSpaceOnUse" color-interpolation-filters="sRGB"></filter><radialGradient id="paint0_radial_1317_841" cx="0" cy="0" r="1" gradientUnits="userSpaceOnUse" gradientTransform="translate(66.0881 10.3594) rotate(-90) scale(0.5 66.0881)"><stop stop-color="#CE7C01"></stop><stop offset="0.406245" stop-color="#DE8F01"></stop><stop offset="1" stop-color="#C88208"></stop></radialGradient><radialGradient id="paint1_radial_1317_841" cx="0" cy="0" r="1" gradientUnits="userSpaceOnUse" gradientTransform="translate(148 10.8581) rotate(90) scale(10.8581 10.8595)"><stop stop-color="#CE7C01"></stop><stop offset="0.406245" stop-color="#DE8F01"></stop><stop offset="1" stop-color="#C4800A"></stop></radialGradient><radialGradient id="paint2_radial_1317_841" cx="0" cy="0" r="1" gradientUnits="userSpaceOnUse" gradientTransform="translate(148 10.8581) rotate(90) scale(10.8581 10.8595)"><stop stop-color="#CE7C01"></stop><stop offset="0.406245" stop-color="#DE8F01"></stop><stop offset="1" stop-color="#C4800A"></stop></radialGradient><radialGradient id="paint3_radial_1317_841" cx="0" cy="0" r="1" gradientUnits="userSpaceOnUse" gradientTransform="translate(148 10.8581) rotate(90) scale(10.8581 10.8595)"><stop stop-color="#CE7C01"></stop><stop offset="0.406245" stop-color="#DE8F01"></stop><stop offset="1" stop-color="#C4800A"></stop></radialGradient><radialGradient id="paint4_radial_1317_841" cx="0" cy="0" r="1" gradientUnits="userSpaceOnUse" gradientTransform="translate(148 10.8581) rotate(90) scale(10.8581 10.8595)"><stop stop-color="#CE7C01"></stop><stop offset="0.406245" stop-color="#DE8F01"></stop><stop offset="1" stop-color="#C4800A"></stop></radialGradient><radialGradient id="paint5_radial_1317_841" cx="0" cy="0" r="1" gradientUnits="userSpaceOnUse" gradientTransform="translate(148 10.8581) rotate(90) scale(10.8581 10.8595)"><stop stop-color="#CE7C01"></stop><stop offset="0.406245" stop-color="#DE8F01"></stop><stop offset="1" stop-color="#C4800A"></stop></radialGradient><radialGradient id="paint6_radial_1317_841" cx="0" cy="0" r="1" gradientUnits="userSpaceOnUse" gradientTransform="translate(148 10.8581) rotate(90) scale(10.8581 10.8595)"><stop stop-color="#CE7C01"></stop><stop offset="0.406245" stop-color="#DE8F01"></stop><stop offset="1" stop-color="#C4800A"></stop></radialGradient><radialGradient id="paint7_radial_1317_841" cx="0" cy="0" r="1" gradientUnits="userSpaceOnUse" gradientTransform="translate(148 10.8581) rotate(90) scale(10.8581 10.8595)"><stop stop-color="#CE7C01"></stop><stop offset="0.406245" stop-color="#DE8F01"></stop><stop offset="1" stop-color="#C4800A"></stop></radialGradient><radialGradient id="paint8_radial_1317_841" cx="0" cy="0" r="1" gradientUnits="userSpaceOnUse" gradientTransform="translate(148 10.8581) rotate(90) scale(10.8581 10.8595)"><stop stop-color="#CE7C01"></stop><stop offset="0.406245" stop-color="#DE8F01"></stop><stop offset="1" stop-color="#C4800A"></stop></radialGradient><radialGradient id="paint9_radial_1317_841" cx="0" cy="0" r="1" gradientUnits="userSpaceOnUse" gradientTransform="translate(148 10.8581) rotate(90) scale(10.8581 10.8595)"><stop stop-color="#CE7C01"></stop><stop offset="0.406245" stop-color="#DE8F01"></stop><stop offset="1" stop-color="#C4800A"></stop></radialGradient><radialGradient id="paint10_radial_1317_841" cx="0" cy="0" r="1" gradientUnits="userSpaceOnUse" gradientTransform="translate(148 10.8581) rotate(90) scale(10.8581 10.8595)"><stop stop-color="#CE7C01"></stop><stop offset="0.406245" stop-color="#DE8F01"></stop><stop offset="1" stop-color="#C4800A"></stop></radialGradient><radialGradient id="paint11_radial_1317_841" cx="0" cy="0" r="1" gradientUnits="userSpaceOnUse" gradientTransform="translate(148 10.8581) rotate(90) scale(10.8581 10.8595)"><stop stop-color="#CE7C01"></stop><stop offset="0.406245" stop-color="#DE8F01"></stop><stop offset="1" stop-color="#C4800A"></stop></radialGradient><radialGradient id="paint12_radial_1317_841" cx="0" cy="0" r="1" gradientUnits="userSpaceOnUse" gradientTransform="translate(148 10.8581) rotate(90) scale(10.8581 10.8595)"><stop stop-color="#CE7C01"></stop><stop offset="0.406245" stop-color="#DE8F01"></stop><stop offset="1" stop-color="#C4800A"></stop></radialGradient><radialGradient id="paint13_radial_1317_841" cx="0" cy="0" r="1" gradientUnits="userSpaceOnUse" gradientTransform="translate(229.912 10.3594) rotate(-90) scale(0.5 66.0881)"><stop stop-color="#CE7C01"></stop><stop offset="0.406245" stop-color="#DE8F01"></stop><stop offset="1" stop-color="#C88208"></stop></radialGradient><radialGradient id="paint14_radial_1317_841" cx="0" cy="0" r="1" gradientUnits="userSpaceOnUse" gradientTransform="translate(66.0881 10.3594) rotate(-90) scale(0.5 66.0881)"><stop stop-color="#CE7C01"></stop><stop offset="0.406245" stop-color="#DE8F01"></stop><stop offset="1" stop-color="#C88208"></stop></radialGradient><radialGradient id="paint15_radial_1317_841" cx="0" cy="0" r="1" gradientUnits="userSpaceOnUse" gradientTransform="translate(148 10.8581) rotate(90) scale(10.8581 10.8595)"><stop stop-color="#CE7C01"></stop><stop offset="0.406245" stop-color="#DE8F01"></stop><stop offset="1" stop-color="#C4800A"></stop></radialGradient><radialGradient id="paint16_radial_1317_841" cx="0" cy="0" r="1" gradientUnits="userSpaceOnUse" gradientTransform="translate(148 10.8581) rotate(90) scale(10.8581 10.8595)"><stop stop-color="#CE7C01"></stop><stop offset="0.406245" stop-color="#DE8F01"></stop><stop offset="1" stop-color="#C4800A"></stop></radialGradient><radialGradient id="paint17_radial_1317_841" cx="0" cy="0" r="1" gradientUnits="userSpaceOnUse" gradientTransform="translate(148 10.8581) rotate(90) scale(10.8581 10.8595)"><stop stop-color="#CE7C01"></stop><stop offset="0.406245" stop-color="#DE8F01"></stop><stop offset="1" stop-color="#C4800A"></stop></radialGradient><radialGradient id="paint18_radial_1317_841" cx="0" cy="0" r="1" gradientUnits="userSpaceOnUse" gradientTransform="translate(148 10.8581) rotate(90) scale(10.8581 10.8595)"><stop stop-color="#CE7C01"></stop><stop offset="0.406245" stop-color="#DE8F01"></stop><stop offset="1" stop-color="#C4800A"></stop></radialGradient><radialGradient id="paint19_radial_1317_841" cx="0" cy="0" r="1" gradientUnits="userSpaceOnUse" gradientTransform="translate(148 10.8581) rotate(90) scale(10.8581 10.8595)"><stop stop-color="#CE7C01"></stop><stop offset="0.406245" stop-color="#DE8F01"></stop><stop offset="1" stop-color="#C4800A"></stop></radialGradient><radialGradient id="paint20_radial_1317_841" cx="0" cy="0" r="1" gradientUnits="userSpaceOnUse" gradientTransform="translate(148 10.8581) rotate(90) scale(10.8581 10.8595)"><stop stop-color="#CE7C01"></stop><stop offset="0.406245" stop-color="#DE8F01"></stop><stop offset="1" stop-color="#C4800A"></stop></radialGradient><radialGradient id="paint21_radial_1317_841" cx="0" cy="0" r="1" gradientUnits="userSpaceOnUse" gradientTransform="translate(148 10.8581) rotate(90) scale(10.8581 10.8595)"><stop stop-color="#CE7C01"></stop><stop offset="0.406245" stop-color="#DE8F01"></stop><stop offset="1" stop-color="#C4800A"></stop></radialGradient><radialGradient id="paint22_radial_1317_841" cx="0" cy="0" r="1" gradientUnits="userSpaceOnUse" gradientTransform="translate(148 10.8581) rotate(90) scale(10.8581 10.8595)"><stop stop-color="#CE7C01"></stop><stop offset="0.406245" stop-color="#DE8F01"></stop><stop offset="1" stop-color="#C4800A"></stop></radialGradient><radialGradient id="paint23_radial_1317_841" cx="0" cy="0" r="1" gradientUnits="userSpaceOnUse" gradientTransform="translate(148 10.8581) rotate(90) scale(10.8581 10.8595)"><stop stop-color="#CE7C01"></stop><stop offset="0.406245" stop-color="#DE8F01"></stop><stop offset="1" stop-color="#C4800A"></stop></radialGradient><radialGradient id="paint24_radial_1317_841" cx="0" cy="0" r="1" gradientUnits="userSpaceOnUse" gradientTransform="translate(148 10.8581) rotate(90) scale(10.8581 10.8595)"><stop stop-color="#CE7C01"></stop><stop offset="0.406245" stop-color="#DE8F01"></stop><stop offset="1" stop-color="#C4800A"></stop></radialGradient><radialGradient id="paint25_radial_1317_841" cx="0" cy="0" r="1" gradientUnits="userSpaceOnUse" gradientTransform="translate(148 10.8581) rotate(90) scale(10.8581 10.8595)"><stop stop-color="#CE7C01"></stop><stop offset="0.406245" stop-color="#DE8F01"></stop><stop offset="1" stop-color="#C4800A"></stop></radialGradient><radialGradient id="paint26_radial_1317_841" cx="0" cy="0" r="1" gradientUnits="userSpaceOnUse" gradientTransform="translate(148 10.8581) rotate(90) scale(10.8581 10.8595)"><stop stop-color="#CE7C01"></stop><stop offset="0.406245" stop-color="#DE8F01"></stop><stop offset="1" stop-color="#C4800A"></stop></radialGradient><radialGradient id="paint27_radial_1317_841" cx="0" cy="0" r="1" gradientUnits="userSpaceOnUse" gradientTransform="translate(229.912 10.3594) rotate(-90) scale(0.5 66.0881)"><stop stop-color="#CE7C01"></stop><stop offset="0.406245" stop-color="#DE8F01"></stop><stop offset="1" stop-color="#C88208"></stop></radialGradient></defs></svg>