<?xml version="1.0" encoding="UTF-8"?>
<svg xmlns="http://www.w3.org/2000/svg" width="730" height="104" viewBox="0 0 730 104" fill="none">
  <mask id="path-1-inside-1_897_172" fill="white">
    <path d="M720.008 0C720.167 5.21711 724.443 9.39746 729.699 9.39746C729.8 9.39746 729.9 9.3927 730 9.38965V94.0068C729.9 94.0038 729.8 94 729.699 94C724.343 94 720 98.3427 720 103.699C720 103.8 720.005 103.9 720.008 104H7.38965C7.3927 103.9 7.39746 103.8 7.39746 103.699C7.39746 99.1357 4.2455 95.3096 0 94.2764V9.12012C4.15159 8.1096 7.25448 4.42982 7.38965 0H720.008Z"></path>
  </mask>
  <g clip-path="url(#paint0_angular_897_172_clip_path)" data-figma-skip-parse="true" mask="url(#path-1-inside-1_897_172)">
    <g transform="matrix(0 0.0740606 -0.316974 0 316.974 74.0606)"></g>
  </g>
  <path d="M720.008 0L721.007 -0.0304981L720.978 -1H720.008V0ZM729.699 9.39746V10.3975H729.699L729.699 9.39746ZM730 9.38965H731V8.35867L729.969 8.39011L730 9.38965ZM730 94.0068L729.969 95.0064L731 95.0378V94.0068H730ZM729.699 94L729.699 93H729.699V94ZM720 103.699H719V103.699L720 103.699ZM720.008 104V105H721.039L721.007 103.97L720.008 104ZM7.38965 104L6.39011 103.969L6.35867 105H7.38965V104ZM7.39746 103.699L8.39746 103.699V103.699H7.39746ZM0 94.2764H-1V95.0622L-0.236472 95.248L0 94.2764ZM0 9.12012L-0.236499 8.14849L-1 8.33432V9.12012H0ZM7.38965 0V-1H6.4197L6.39011 -0.0304986L7.38965 0ZM720.008 0L719.008 0.0304981C719.184 5.78574 723.901 10.3975 729.699 10.3975V9.39746V8.39746C724.986 8.39746 721.15 4.64848 721.007 -0.0304981L720.008 0ZM729.699 9.39746L729.699 10.3975C729.82 10.3975 729.953 10.3915 730.031 10.3892L730 9.38965L729.969 8.39011C729.847 8.39385 729.78 8.39746 729.699 8.39746L729.699 9.39746ZM730 9.38965H729V94.0068H730H731V9.38965H730ZM730 94.0068L730.031 93.0073C729.941 93.0046 729.82 93 729.699 93L729.699 94L729.699 95C729.78 95 729.859 95.003 729.969 95.0064L730 94.0068ZM729.699 94V93C723.79 93 719 97.7904 719 103.699H720H721C721 98.895 724.895 95 729.699 95V94ZM720 103.699L719 103.699C719 103.82 719.006 103.953 719.008 104.03L720.008 104L721.007 103.97C721.004 103.847 721 103.78 721 103.699L720 103.699ZM720.008 104V103H7.38965V104V105H720.008V104ZM7.38965 104L8.38918 104.031C8.39154 103.953 8.39746 103.82 8.39746 103.699L7.39746 103.699L6.39746 103.699C6.39746 103.78 6.39385 103.847 6.39011 103.969L7.38965 104ZM7.39746 103.699H8.39746C8.39746 98.6637 4.91947 94.4445 0.236472 93.3047L0 94.2764L-0.236472 95.248C3.57152 96.1748 6.39746 99.6078 6.39746 103.699H7.39746ZM0 94.2764H1V9.12012H0H-1V94.2764H0ZM0 9.12012L0.236499 10.0917C4.81636 8.97699 8.24002 4.91894 8.38918 0.0304986L7.38965 0L6.39011 -0.0304986C6.26894 3.9407 3.48683 7.24221 -0.236499 8.14849L0 9.12012ZM7.38965 0V1H720.008V0V-1H7.38965V0Z" data-figma-gradient-fill="{&quot;type&quot;:&quot;GRADIENT_ANGULAR&quot;,&quot;stops&quot;:[{&quot;color&quot;:{&quot;r&quot;:0.64705884456634521,&quot;g&quot;:0.52156865596771240,&quot;b&quot;:0.21176470816135406,&quot;a&quot;:1.0},&quot;position&quot;:0.04642837867140770},{&quot;color&quot;:{&quot;r&quot;:0.85882353782653809,&quot;g&quot;:0.69019609689712524,&quot;b&quot;:0.11764705926179886,&quot;a&quot;:1.0},&quot;position&quot;:0.11391544342041016},{&quot;color&quot;:{&quot;r&quot;:0.56862747669219971,&quot;g&quot;:0.37254902720451355,&quot;b&quot;:0.039215687662363052,&quot;a&quot;:1.0},&quot;position&quot;:0.17489027976989746},{&quot;color&quot;:{&quot;r&quot;:0.64705884456634521,&quot;g&quot;:0.41176471114158630,&quot;b&quot;:0.035294119268655777,&quot;a&quot;:1.0},&quot;position&quot;:0.2202710360288620},{&quot;color&quot;:{&quot;r&quot;:0.65098041296005249,&quot;g&quot;:0.48235294222831726,&quot;b&quot;:0.090196080505847931,&quot;a&quot;:1.0},&quot;position&quot;:0.27422690391540527},{&quot;color&quot;:{&quot;r&quot;:0.98039215803146362,&quot;g&quot;:0.90196079015731812,&quot;b&quot;:0.19215686619281769,&quot;a&quot;:1.0},&quot;position&quot;:0.34490028023719788},{&quot;color&quot;:{&quot;r&quot;:0.84705883264541626,&quot;g&quot;:0.76078432798385620,&quot;b&quot;:0.52156865596771240,&quot;a&quot;:1.0},&quot;position&quot;:0.39200019836425781},{&quot;color&quot;:{&quot;r&quot;:0.72156864404678345,&quot;g&quot;:0.65098041296005249,&quot;b&quot;:0.49411764740943909,&quot;a&quot;:1.0},&quot;position&quot;:0.43342581391334534},{&quot;color&quot;:{&quot;r&quot;:0.59215688705444336,&quot;g&quot;:0.50196081399917603,&quot;b&quot;:0.14509804546833038,&quot;a&quot;:1.0},&quot;position&quot;:0.46075436472892761},{&quot;color&quot;:{&quot;r&quot;:0.62352943420410156,&quot;g&quot;:0.61176472902297974,&quot;b&quot;:0.55294120311737061,&quot;a&quot;:1.0},&quot;position&quot;:0.50384402275085449},{&quot;color&quot;:{&quot;r&quot;:0.63921570777893066,&quot;g&quot;:0.40000000596046448,&quot;b&quot;:0.094117648899555206,&quot;a&quot;:1.0},&quot;position&quot;:0.55336123704910278},{&quot;color&quot;:{&quot;r&quot;:0.84705883264541626,&quot;g&quot;:0.69803923368453979,&quot;b&quot;:0.27058824896812439,&quot;a&quot;:1.0},&quot;position&quot;:0.60146307945251465},{&quot;color&quot;:{&quot;r&quot;:0.64313727617263794,&quot;g&quot;:0.41568627953529358,&quot;b&quot;:0.086274512112140656,&quot;a&quot;:1.0},&quot;position&quot;:0.62640494108200073},{&quot;color&quot;:{&quot;r&quot;:0.73725491762161255,&quot;g&quot;:0.54509806632995605,&quot;b&quot;:0.17254902422428131,&quot;a&quot;:1.0},&quot;position&quot;:0.68928122520446777},{&quot;color&quot;:{&quot;r&quot;:0.71372550725936890,&quot;g&quot;:0.52941179275512695,&quot;b&quot;:0.21960784494876862,&quot;a&quot;:1.0},&quot;position&quot;:0.75151240825653076},{&quot;color&quot;:{&quot;r&quot;:0.57647061347961426,&quot;g&quot;:0.32941177487373352,&quot;b&quot;:0.047058824449777603,&quot;a&quot;:1.0},&quot;position&quot;:0.80762606859207153},{&quot;color&quot;:{&quot;r&quot;:0.63529413938522339,&quot;g&quot;:0.51372551918029785,&quot;b&quot;:0.21568627655506134,&quot;a&quot;:1.0},&quot;position&quot;:0.88702690601348877},{&quot;color&quot;:{&quot;r&quot;:0.49803921580314636,&quot;g&quot;:0.38039216399192810,&quot;b&quot;:0.16862745583057404,&quot;a&quot;:1.0},&quot;position&quot;:0.95334446430206299}],&quot;stopsVar&quot;:[{&quot;color&quot;:{&quot;r&quot;:0.64705884456634521,&quot;g&quot;:0.52156865596771240,&quot;b&quot;:0.21176470816135406,&quot;a&quot;:1.0},&quot;position&quot;:0.04642837867140770},{&quot;color&quot;:{&quot;r&quot;:0.85882353782653809,&quot;g&quot;:0.69019609689712524,&quot;b&quot;:0.11764705926179886,&quot;a&quot;:1.0},&quot;position&quot;:0.11391544342041016},{&quot;color&quot;:{&quot;r&quot;:0.56862747669219971,&quot;g&quot;:0.37254902720451355,&quot;b&quot;:0.039215687662363052,&quot;a&quot;:1.0},&quot;position&quot;:0.17489027976989746},{&quot;color&quot;:{&quot;r&quot;:0.64705884456634521,&quot;g&quot;:0.41176471114158630,&quot;b&quot;:0.035294119268655777,&quot;a&quot;:1.0},&quot;position&quot;:0.2202710360288620},{&quot;color&quot;:{&quot;r&quot;:0.65098041296005249,&quot;g&quot;:0.48235294222831726,&quot;b&quot;:0.090196080505847931,&quot;a&quot;:1.0},&quot;position&quot;:0.27422690391540527},{&quot;color&quot;:{&quot;r&quot;:0.98039215803146362,&quot;g&quot;:0.90196079015731812,&quot;b&quot;:0.19215686619281769,&quot;a&quot;:1.0},&quot;position&quot;:0.34490028023719788},{&quot;color&quot;:{&quot;r&quot;:0.84705883264541626,&quot;g&quot;:0.76078432798385620,&quot;b&quot;:0.52156865596771240,&quot;a&quot;:1.0},&quot;position&quot;:0.39200019836425781},{&quot;color&quot;:{&quot;r&quot;:0.72156864404678345,&quot;g&quot;:0.65098041296005249,&quot;b&quot;:0.49411764740943909,&quot;a&quot;:1.0},&quot;position&quot;:0.43342581391334534},{&quot;color&quot;:{&quot;r&quot;:0.59215688705444336,&quot;g&quot;:0.50196081399917603,&quot;b&quot;:0.14509804546833038,&quot;a&quot;:1.0},&quot;position&quot;:0.46075436472892761},{&quot;color&quot;:{&quot;r&quot;:0.62352943420410156,&quot;g&quot;:0.61176472902297974,&quot;b&quot;:0.55294120311737061,&quot;a&quot;:1.0},&quot;position&quot;:0.50384402275085449},{&quot;color&quot;:{&quot;r&quot;:0.63921570777893066,&quot;g&quot;:0.40000000596046448,&quot;b&quot;:0.094117648899555206,&quot;a&quot;:1.0},&quot;position&quot;:0.55336123704910278},{&quot;color&quot;:{&quot;r&quot;:0.84705883264541626,&quot;g&quot;:0.69803923368453979,&quot;b&quot;:0.27058824896812439,&quot;a&quot;:1.0},&quot;position&quot;:0.60146307945251465},{&quot;color&quot;:{&quot;r&quot;:0.64313727617263794,&quot;g&quot;:0.41568627953529358,&quot;b&quot;:0.086274512112140656,&quot;a&quot;:1.0},&quot;position&quot;:0.62640494108200073},{&quot;color&quot;:{&quot;r&quot;:0.73725491762161255,&quot;g&quot;:0.54509806632995605,&quot;b&quot;:0.17254902422428131,&quot;a&quot;:1.0},&quot;position&quot;:0.68928122520446777},{&quot;color&quot;:{&quot;r&quot;:0.71372550725936890,&quot;g&quot;:0.52941179275512695,&quot;b&quot;:0.21960784494876862,&quot;a&quot;:1.0},&quot;position&quot;:0.75151240825653076},{&quot;color&quot;:{&quot;r&quot;:0.57647061347961426,&quot;g&quot;:0.32941177487373352,&quot;b&quot;:0.047058824449777603,&quot;a&quot;:1.0},&quot;position&quot;:0.80762606859207153},{&quot;color&quot;:{&quot;r&quot;:0.63529413938522339,&quot;g&quot;:0.51372551918029785,&quot;b&quot;:0.21568627655506134,&quot;a&quot;:1.0},&quot;position&quot;:0.88702690601348877},{&quot;color&quot;:{&quot;r&quot;:0.49803921580314636,&quot;g&quot;:0.38039216399192810,&quot;b&quot;:0.16862745583057404,&quot;a&quot;:1.0},&quot;position&quot;:0.95334446430206299}],&quot;transform&quot;:{&quot;m00&quot;:3.8818083404786041e-14,&quot;m01&quot;:-633.94738769531250,&quot;m02&quot;:633.94738769531250,&quot;m10&quot;:148.12121582031250,&quot;m11&quot;:9.0698085706327619e-15,&quot;m12&quot;:1.8774529823687300e-22},&quot;opacity&quot;:1.0,&quot;blendMode&quot;:&quot;NORMAL&quot;,&quot;visible&quot;:true}" mask="url(#path-1-inside-1_897_172)"></path>
  <defs>
    <clipPath id="paint0_angular_897_172_clip_path">
      <path d="M720.008 0L721.007 -0.0304981L720.978 -1H720.008V0ZM729.699 9.39746V10.3975H729.699L729.699 9.39746ZM730 9.38965H731V8.35867L729.969 8.39011L730 9.38965ZM730 94.0068L729.969 95.0064L731 95.0378V94.0068H730ZM729.699 94L729.699 93H729.699V94ZM720 103.699H719V103.699L720 103.699ZM720.008 104V105H721.039L721.007 103.97L720.008 104ZM7.38965 104L6.39011 103.969L6.35867 105H7.38965V104ZM7.39746 103.699L8.39746 103.699V103.699H7.39746ZM0 94.2764H-1V95.0622L-0.236472 95.248L0 94.2764ZM0 9.12012L-0.236499 8.14849L-1 8.33432V9.12012H0ZM7.38965 0V-1H6.4197L6.39011 -0.0304986L7.38965 0ZM720.008 0L719.008 0.0304981C719.184 5.78574 723.901 10.3975 729.699 10.3975V9.39746V8.39746C724.986 8.39746 721.15 4.64848 721.007 -0.0304981L720.008 0ZM729.699 9.39746L729.699 10.3975C729.82 10.3975 729.953 10.3915 730.031 10.3892L730 9.38965L729.969 8.39011C729.847 8.39385 729.78 8.39746 729.699 8.39746L729.699 9.39746ZM730 9.38965H729V94.0068H730H731V9.38965H730ZM730 94.0068L730.031 93.0073C729.941 93.0046 729.82 93 729.699 93L729.699 94L729.699 95C729.78 95 729.859 95.003 729.969 95.0064L730 94.0068ZM729.699 94V93C723.79 93 719 97.7904 719 103.699H720H721C721 98.895 724.895 95 729.699 95V94ZM720 103.699L719 103.699C719 103.82 719.006 103.953 719.008 104.03L720.008 104L721.007 103.97C721.004 103.847 721 103.78 721 103.699L720 103.699ZM720.008 104V103H7.38965V104V105H720.008V104ZM7.38965 104L8.38918 104.031C8.39154 103.953 8.39746 103.82 8.39746 103.699L7.39746 103.699L6.39746 103.699C6.39746 103.78 6.39385 103.847 6.39011 103.969L7.38965 104ZM7.39746 103.699H8.39746C8.39746 98.6637 4.91947 94.4445 0.236472 93.3047L0 94.2764L-0.236472 95.248C3.57152 96.1748 6.39746 99.6078 6.39746 103.699H7.39746ZM0 94.2764H1V9.12012H0H-1V94.2764H0ZM0 9.12012L0.236499 10.0917C4.81636 8.97699 8.24002 4.91894 8.38918 0.0304986L7.38965 0L6.39011 -0.0304986C6.26894 3.9407 3.48683 7.24221 -0.236499 8.14849L0 9.12012ZM7.38965 0V1H720.008V0V-1H7.38965V0Z"></path>
    </clipPath>
  </defs>
</svg>
